<mxfile host="app.diagrams.net" modified="2023-05-26T15:53:14.692Z" agent="Mozilla/5.0 (Windows NT 10.0; Win64; x64) AppleWebKit/537.36 (KHTML, like Gecko) Chrome/113.0.0.0 Safari/537.36" version="21.2.3" etag="Vjp_jG3q4he1xu5t78Ty" type="github">
  <diagram name="Page-1" id="EqN2ihkZY8LfmmxPtkRx">
    <mxGraphModel>
      <root>
        <mxCell id="0" />
        <mxCell id="1" parent="0" />
      </root>
    </mxGraphModel>
  </diagram>
</mxfile>
